/* XPM */
static char *coin_texture[] = {
/* columns rows colors chars-per-pixel */
"32 32 16 1 ",
"  c #22AC2A",
". c #22AD2A",
"X c #22AC2B",
"o c #22AD2B",
"O c #23AD2B",
"+ c #22AC5A",
"@ c #22AD5A",
"# c #23AD5A",
"$ c #22AC5B",
"% c #23AC5B",
"& c #22AD5B",
"* c #23AD5B",
"= c #DEFE00",
"- c #DFFF01",
"; c #DBDADA",
": c #DADBDA",
/* pixels */
"....$o........o.o.@..$..%@.....o",
"..$.$o.o.%..@%...@.@$$$O%.OO%...",
".%.%..o.@.&@&%.@%.@$$.@@...@$...",
"...%.o.*&%&@.%.%.%%..&@O...%$...",
"OO$$O$*.O@OO$***@$...$@O.....%..",
"O$..*...@OO@$.o*@...$$OO@...%...",
"...$*...$O*.$.**@o.$.@O@@..%O%..",
".%$*****$*..$$**..$.$OO@..%@.%..",
".oo$O@O$o&O%***-==%.%X**oo$o$o..",
".o$.&@@&$&O@*-=-====..**...o$...",
"OO$&@O@@O%O@o==---==X%*...o$*.o.",
"OOO&O@@..%.=------===%o.$...*$..",
"...$o$@O.@.===--------**$...*$..",
"..$$$$.OO@.=====;---==.*....*...",
".@@..$oO.&.===-;;;--==*.....*...",
".@@$$$OO&..===-;;;--==$....**...",
"O&&@@OOo%.o-===;;;==--*...%%%...",
"O@O@OOOo$**====;;;==--*.*O%.%O..",
"OO.%OOo&***=---;;;====.%**%%....",
"OO@@O@@@.**-----;-====%..*%%....",
"..@@&&OO*.$o======---.*..$......",
"..@O&$O%%.$$=====---o**o.$.o....",
"OO@@$$$$..$$.====---.%..$..o....",
".O@@$$$o...*%.%=--oo**$**......o",
"..@@O%.@..$$$oOOOO$@O@&@*o.%%...",
"..%%O@.@..$$$oOO%$$O@%%%.o%.%...",
"...%..$O.@%@o..&@@&&@o.%.%.%.%..",
"...%.%@O@%OO..$&O%&$$o..*o%.%...",
"..$.@.&@$$OO@@%o@&.&....%.%.%OO.",
".o$.&O&$o.@&$%.@@O@...@%..@@OO..",
"..$........$$o..O@O...@..%%@....",
".o.o.o...o............O..%......"
};
