/* XPM */
static char *ennemi[] = {
/* columns rows colors chars-per-pixel */
"32 32 9 1 ",
"  c black",
". c #010000",
"X c #000100",
"o c #010100",
"O c #000001",
"+ c #010001",
"@ c #000101",
"# c #010101",
"$ c None",
/* pixels */
"$$$$$$$$$$$$$$$$$$$$$$$$$$$$$$$$",
"$$$$$$$$$$$$$$$$$$$$$$$$$$$$$$$$",
"$$$$$$$$$$$$$$$$$$$$$$$$$$$$$$$$",
"$$$$$$$$$$$$$$$$$$$$$$$$$$$$$$$$",
"$$$$$$$$$$$$$$$$$$$$$$$$$$$$$$$$",
"$$$$$$$$$$$$$$$$$$$$$$$$$$$$$$$$",
"$$$$$$$$$$$$.@.$$.@.$$$$$$$$$$$$",
"$$$$$$.$$$$...$$$$...$$$$.$$$$$$",
"$$$$$$.$$...@.@.@@.....$$@$$$$$$",
"$$$$$$.$$...$@$$$$.$...$$@$$$$$$",
"$$$$$$.$$.$$..$$$$..$$.$$.$$$$$$",
"$$$$$$.$$.$$$......$$$.$$.$$$$$$",
"$$$$$$.$$.$$$.$.@$.$$$.$$.$$$$$$",
"$$$$$$.$$.@.@..........$$@$$$$$$",
"$$$$$$.$$$$..@.$$.@..$$$$@$$$$$$",
"$$$$$$.$$..$..$$$$..$@.$$@$$$$$$",
"$$$$$$...$$$..$$$$..$$$..@$$$$$$",
"$$$$$$$$$$$$..$$$$@@$$$$$$$$$$$$",
"$$$$$$$$$$$$...$$..@$$$$$$$$$$$$",
"$$$$$$$$$$$$$..$$@@$$$$$$$$$$$$$",
"$$$$$$$$$$$$$$$..$$$$$$$$$$$$$$$",
"$$$$$$$$$$$$$..@...$$$$$$$$$$$$$",
"$$$$$$$$$$$.@..$$.@@.$$$$$$$$$$$",
"$$$$$$$@..@............@.$$$$$$$",
"$$$$$$$$$$$$$$$$$$$$$$$$$$$$$$$$",
"$$$$$$$$$$$$$$$$$$$$$$$$$$$$$$$$",
"$$$$$$$$$$$$$$$$$$$$$$$$$$$$$$$$",
"$$$$$$$$$$$$$$$$$$$$$$$$$$$$$$$$",
"$$$$$$$$$$$$$$$$$$$$$$$$$$$$$$$$",
"$$$$$$$$$$$$$$$$$$$$$$$$$$$$$$$$",
"$$$$$$$$$$$$$$$$$$$$$$$$$$$$$$$$",
"$$$$$$$$$$$$$$$$$$$$$$$$$$$$$$$$"
};
