/* XPM */
static char *exit_texture_blocked[] = {
/* columns rows colors chars-per-pixel */
"32 32 19 1 ",
"  c black",
". c #000101",
"X c #FE0404",
"o c #FF0404",
"O c #FE0504",
"+ c #22AC2A",
"@ c #23AC2A",
"# c #22AD2A",
"$ c #23AD2A",
"% c #22AC2B",
"& c #23AC2B",
"* c #22AD2B",
"= c #23AD2B",
"- c #22AC5A",
"; c #23AD5A",
": c #22AC5B",
"> c #23AC5B",
", c #22AD5B",
"< c #23AD5B",
/* pixels */
"####:%##$$$$$$+###-%#<#+>>#%%##%",
"##:#:%#%$,$$<<###-#<<>>#>##+<%+#",
"#>#>%###,$,,--%<-%--:+::#+#<:##&",
"###>##%<,,,,$>#<%--%#<:####<:#+#",
"##<<#<<#%-%%-<<<<<###><######:%#",
"#<##<###<%%<<%%XO%##>>##<###:###",
"###<<###>%<+<OXX.##<#<#<:##<%:##",
"#<<<<<<<>>#XXOXX.#<#<%#<%#<<%<##",
"###>#<#:#XXXXXXX.,-#-%-<#%<#<#%%",
"##>#:<<<XXXXXXXX.,--%%-<#%#%<#%#",
"##<<:#XXXXXXXXXX.<###-<%%#%<<###",
"+##<+XXXXXXXXXXX.<#%<,%%<#%#<<##",
"++%<OOOXXoXXXXXX.<#<#<<>:###<<##",
"%+<<OOXXooOXXXXX.##<<<#<#+##<###",
"#>-%%OOXooOOXXXX.###<<<%%###>&&#",
"#<-:--OXooOOXXXX.##<<#<#%%#>>###",
"#><><##XXXOOXXXX.<<<:::%%%<<<###",
"#<#<##+#XXOo#<XO.#<<:<<%<#<#<###",
"###>++#<<XXXX<-O.<<<<%#<<<<<++##",
"##<<#><<#>>XXX%O.>><%#:%#<<<####",
"##>><<##<#<#OOOO.<<###:##<#%#%##",
"##<#><#<:#::<oOO.<<#&<<##<=%%###",
"%%<<::<<##:<%#OO.####<##<######%",
"%%<><<<####<<<<<.#+#<<<<>##%%=#%",
"##<<#-%-##<>>>-%.#><#<<<>#%<<###",
"#$<<#>%-##<<>>%%.><#<<<:##<%<###",
"#$$-#%<%#<<<###:.<>><##<#<#<#<##",
"###-#--#<<####>-.<><>+#&:%<#<%##",
"##<#-%-<>>##<>>+.<#>###%<#<#:###",
"##<#-%--##<<<>#<.#>###::##<<%#%#",
"##,###%####<<#+#.<###&<##<<<#%##",
"################.########<#%####"
};
