/* XPM */
static char *exit_texture[] = {
/* columns rows colors chars-per-pixel */
"32 32 19 1 ",
"  c #010000",
". c #22AC2A",
"X c #23AC2A",
"o c #22AD2A",
"O c #23AD2A",
"+ c #22AC2B",
"@ c #23AC2B",
"# c #22AD2B",
"$ c #23AD2B",
"% c #23AC5A",
"& c #22AD5A",
"* c #23AD5A",
"= c #22AC5B",
"- c #23AC5B",
"; c #22AD5B",
": c #23AD5B",
"> c #005AC8",
", c #015BC8",
"< c #015BC9",
/* pixels */
"oo$$;ooo###ooooooo;oo-o$;;o$ooo@",
"oo-$;ooo#;#o;;ooo;o;-=-$;oOo-$.o",
"o-$-o$oo:#==;;o;;o*;*$==ooo%-$o.",
"ooo-o$o;:::=o&o;o;;oo=*oooo;-o.o",
"##;;o==oo-oo==--;;ooo;=ooooo$%$$",
"o;##=ooo-oo==oO>,Ooo%*oo;ooo;o+$",
"oo#;;#oo-o;o-<>> oo;o%o=;oo;o;++",
"o;;;;===-*O><>>> o;o%oo%oo;;o;++",
"ooo;o=o=O,,,>>>> ;;.;o;;oo%o%ooo",
"oo;o==-=<<,,>>>> ;;;oo;;oooo-ooo",
"oo;;%.%>>>,,>>>> ;..o;;oooo;=o.o",
"oOo;.>>>>>>>>>>> ;..;;oo;ooo=-$o",
"oOo=<<>>>>>>>>>> ;o;o;;;-$oo==oo",
"OO==,,>>>>>>>>>> oo;;;o;$.oO=ooo",
"o*=oo,,>>>>>>>>> ooo;;;+$$oo;ooo",
"o*==;;,,>>>>>>>> oo;;o;+$$o;;ooo",
"o;*;;Oo,>>>>>>>> ;;;===++#;;;###",
"o;O*oooo>>>>o;>> o;;===$&#&#;###",
"oOo;ooo;=>>>>=%> ;;;;oo;&;;;oooo",
"oo*;o;;;o-=>>>., ;;;oo;+#&;;oooo",
"oo**;*#$=#*O,,,> ;-o$o=+o-oooooo",
"oO;o;;$*=$--%,>> ;-o$--oo-o$oooo",
"OO;;;;;;##-=oo,, oo$$-$o-ooOoooo",
"Oo;;;;;####:;;;; ooo;%;%-ooooooo",
"oo%;.;o%##;;;;*o o;;o=---oo;;ooo",
"Oo;%o%o%##;;;;oo ;;#=---oo;$;ooo",
"..O;oo=o#;:=ooo* ;::=oo-o-o-o%oo",
"ooo;o==o;;#ooo&; ;::=oo$-$-o;ooo",
"oo-o=o=*==oo-%;o ;o;oooO=o=o%ooo",
"oo-o=o*=oo==-%o; o;ooo**#o==$$oo",
"o$-ooo$oooo=-$oo ;oooo;o#;==oooo",
"ooooooooooo$$$oo oooooooo;oooooo"
};
