/* XPM */
static char *fe60e90e15f54bb68deff64589b19cb6u2FBc697Fzn0e7On[] = {
/* columns rows colors chars-per-pixel */
"32 32 2 1 ",
"  c #22AD2A",
". c #22AD5B",
/* pixels */
"    .             .  .  ..      ",
"  . .    .  ..   . .... .   .   ",
" . .    . .... .. ... ..   ..   ",
"   .   ..... . . ..  ..    ..   ",
"  .. ..  .  ......   ..      .  ",
" .  .   .  ..  ..   ..  .   .   ",
"   ..   . . . ...  . . ..  . .  ",
" .........  ....  . .  .  .. .  ",
"   . . . . ..... .. . ..  . .   ",
"  . ...... ... .....  ..    .   ",
"  ... .. . .  .. .   ..    ..   ",
"   . ..  . ... . .  ..  .   ..  ",
"   . ..  .  .  ... . ....   ..  ",
"  ....   . ..   .  ... .    .   ",
" ..  .   . .   ..   ...     .   ",
" .....  .  .   .   .. .    ..   ",
" ....   .  .... .......   ...   ",
" . .    .... . .  ..... . . .   ",
"   .   ....  ... ....  .....    ",
"  .. ... .. ..   ...  .  ...    ",
"  ....  . . ..  ...   .  .      ",
"  . .. .. ...   ...  ..  .      ",
"  ......  ..  ..     .  .       ",
"  .....    .....    .....       ",
"  .. . .  .....   .. ....  ..   ",
"  .. . .  ....  ... ....  . .   ",
"   .  .  ...   ......  . . . .  ",
"   . .. ..    .. ....   . . .   ",
"  . . ....  ... .. .    . . .   ",
"  . . ..  .... .. .   ..  ..    ",
"  .        ..    .    .  ...    ",
"                         .      "
};
