/* XPM */
static char *perso_texture[] = {
/* columns rows colors chars-per-pixel */
"32 32 12 1 ",
"  c #000100",
". c #22AC2A",
"X c #22AD2A",
"o c #23AC2B",
"O c #22AD2B",
"+ c #23AD2B",
"@ c #22AC5A",
"# c #22AD5A",
"$ c #23AD5A",
"% c #22AC5B",
"& c #23AC5B",
"* c #22AD5B",
/* pixels */
"XXXX&XXX...XXXXX++*XX*XX@&XXXXXX",
"XX*X&XXX.*.X$$XX+*+@**@X*+XX&XXO",
"X$X&XXXX*.*&$*X**X*@*X*#XXX&&XXO",
"X+X&XX+**$**X$+*X**+X**.++X&&X..",
"XX**X*&XX*XX**&&@*+XX&%.XXXXX*XX",
"+*XX*+XX*XX**XX&*X+X@*..&XXX&+XX",
"+XX*&XXX*X*X*X&&*X+*+&+%&XX*X@XX",
"X***&&&&&*XX*&&&XX*X%O.%XX*&X*XX",
"XXX&X&X*X*X*&**&X&@X*+&&XX&.&XXX",
"XX&X&&&&**X*&*    &@X+&&XXOX&XXX",
"++&&&X  X*X*X &  & X+*&X  X&&XXX",
"X+X&X&&  &X&&      X**o  XXX&&XX",
"XXX*X*@X *Xo*  &&  &X&& *XXX&*XX",
"XX*@**XX  o*@  o&  &&&  +XXX*XXX",
"X&&XX@XXX  *X X*&X X&  XXXXX*XXX",
"X&****XX*X     &X     &XXoX**XXX",
"X&&&&XXX&X &&  X&  ** *XXX***XXX",
"X&X&XXXX&&&&X&    ****&X&X*+*XXX",
"XXX&+XX&&&&XX      **XX&&&&&XXXX",
"XX&&+*  X&*X  X  *  XX&X  &&XXXX",
"XX**&  X*+*  *X  &*  X&XX  XXXXX",
"XX&X& X&*X* *X+  **X &&XX* oXXXX",
"XX&&&& &OX  ++*  .X+  XX* ooXXXo",
"XX&&&  X.X &$**  OX+& &&*  XoXoo",
"XX**X                      &&XXX",
"XX*&+*X&XX****XX&&&+&*&*Xo&X&XXX",
"XX+*XX&XX**@oXX*&&&&*XX*X*+&X*XX",
"X+X*X&&X@@XXXo**X&&**+X+$X&X&X+X",
"OO&X&X&&&&XX@*&X&&X&+XXX&X&X&XXX",
".+&X&X*&XX***&X&&X&XXX**XX&&XXXX",
"..&XXXX+XXX&*XXXX&XXX+&XX***XXXX",
".OXXXX++XXX++XXXXXXX+XX+X*XXXXXX"
};
