/* XPM */
static char *ed4d9f4aada34959c0496d7606892c6dkRffEfAMO5VPaL4g[] = {
/* columns rows colors chars-per-pixel */
"32 32 2 1 ",
"  c #343434",
". c #6A6767",
/* pixels */
"................................",
"................................",
".........  ............. .......",
".......  .. ..........  . ......",
".....  ..... ........ .... .....",
"...  ........ ...... ......  ...",
".  ........... ...  ......... ..",
" .............. . ............ .",
"................ .............. ",
"................................",
"................................",
"................................",
".......    ..........  .........",
"...    ....   ...    .. ....... ",
"   ...........   .......  ..   .",
"..........................  ....",
"................................",
"   .............................",
"...    .....     ...............",
".......     .....  .............",
"...................  ......     ",
" ....................      .....",
". .............. ...............",
".. ............ . ............. ",
"... .........  ... ........... .",
".... ....... ...... ......... ..",
".... ...... ........  .....  ...",
"..... ...  ........... ... .....",
"...... . .............. . ......",
"....... ................ .......",
"................................",
"................................"
};
